<svg stroke="#344054" xmlns="http://www.w3.org/2000/svg" fill="none" viewBox="2.1792000000000016 2.1503999999999976 20.016000000000002 20.304" style="max-height: 500px" width="20.016000000000002" height="20.304">

<g transform="translate(7.68,7.68), scale(0.36)" stroke-width="0" id="SVGRepo_bgCarrier"/>

<g stroke-width="0.624" stroke="#CCCCCC" stroke-linejoin="round" stroke-linecap="round" id="SVGRepo_tracerCarrier"> <path stroke-linejoin="round" stroke-linecap="round" stroke-width="0.8640000000000001" stroke="#344054" d="M5.06152 12C5.55362 8.05369 8.92001 5 12.9996 5C17.4179 5 20.9996 8.58172 20.9996 13C20.9996 17.4183 17.4179 21 12.9996 21H8M13 13V9M11 3H15M3 15H8M5 18H10"/> </g>

<g id="SVGRepo_iconCarrier"> <path stroke-linejoin="round" stroke-linecap="round" stroke-width="0.8640000000000001" stroke="#344054" d="M5.06152 12C5.55362 8.05369 8.92001 5 12.9996 5C17.4179 5 20.9996 8.58172 20.9996 13C20.9996 17.4183 17.4179 21 12.9996 21H8M13 13V9M11 3H15M3 15H8M5 18H10"/> </g>

</svg>